<svg xmlns="http://www.w3.org/2000/svg" width="698.639" height="200.104" viewBox="0 0 698.639 200.104">
  <g id="Group_10363" data-name="Group 10363" transform="translate(-196.218 -268.031)">
    <g id="Group_2240" data-name="Group 2240" transform="translate(356.066 409.749)">
      <path id="Path_1657" data-name="Path 1657" d="M416.817,471.348c-3.318-3.4-6.253-4.942-9.881-4.942-5.788,0-9.494,5.173-9.494,13.434,0,7.951,3.4,13.663,9.727,13.663,3.783,0,6.02-1.7,9.187-5.016l5.094,5.016c-3.163,4.015-7.178,7.566-14.513,7.566-9.881,0-17.523-8.337-17.523-21,0-13.431,7.875-21.228,17.756-21.228a17.918,17.918,0,0,1,14.358,6.871Z" transform="translate(-389.413 -442.685)"/>
      <path id="Path_1658" data-name="Path 1658" d="M451.429,501.068c-10.191,0-17.833-8.414-17.833-21.074,0-13.278,7.874-21.151,18.064-21.151,10.342,0,18.063,8.259,18.063,20.92C469.723,493.194,461.849,501.068,451.429,501.068Zm-.077-34.662c-6.022,0-9.727,5.328-9.727,13.356,0,8.877,4.091,13.74,10.111,13.74s9.959-6.1,9.959-13.509C461.7,471.734,457.758,466.406,451.352,466.406Z" transform="translate(-397.039 -442.685)"/>
      <path id="Path_1659" data-name="Path 1659" d="M510.3,500.22V477.292c0-8.183-3.089-11.116-8.338-11.116-5.327,0-8.338,3.782-8.338,10.345v23.7h-7.951V459.69h7.951v3.862c2.007-2.936,6.022-4.71,10.189-4.71,9.418,0,14.436,6.177,14.436,18.141V500.22Z" transform="translate(-406.029 -442.685)"/>
      <path id="Path_1660" data-name="Path 1660" d="M555.106,495.844a16.109,16.109,0,0,1-7.8,1.853c-5.634,0-9.107-3.474-9.107-10.73v-23.39h-5.791v-7.258H538.2V443.483L546,439.314v17.005h10.035v7.258H546v21.5c0,3.782,1.235,4.863,4.169,4.863a12.717,12.717,0,0,0,5.866-1.623Z" transform="translate(-414.096 -439.314)"/>
      <path id="Path_1661" data-name="Path 1661" d="M585.862,501.068c-10.192,0-17.834-8.414-17.834-21.074,0-13.278,7.876-21.151,18.064-21.151,10.344,0,18.063,8.259,18.063,20.92C604.156,493.194,596.283,501.068,585.862,501.068Zm-.078-34.662c-6.019,0-9.726,5.328-9.726,13.356,0,8.877,4.09,13.74,10.113,13.74s9.958-6.1,9.958-13.509C596.129,471.734,592.192,466.406,585.784,466.406Z" transform="translate(-420.243 -442.685)"/>
      <path id="Path_1662" data-name="Path 1662" d="M645.517,500.4v-3.861c-2.009,2.935-6.02,4.709-10.189,4.709-9.42,0-14.439-6.177-14.439-18.141V459.867h7.952v22.928c0,8.184,3.088,11.117,8.339,11.117,5.324,0,8.336-3.784,8.336-10.344v-23.7h7.952V500.4Z" transform="translate(-429.368 -442.862)"/>
      <path id="Path_1663" data-name="Path 1663" d="M695.141,468.105a11.869,11.869,0,0,0-6.1-1.466c-5.015,0-7.951,3.55-7.951,10.42v23.16h-7.949V459.69h7.949v3.862a11.234,11.234,0,0,1,9.264-4.71c3.241,0,5.248.617,6.868,1.7Z" transform="translate(-438.387 -442.685)"/>
      <path id="Path_1664" data-name="Path 1664" d="M733.23,496.849v-3.861c-2.932,2.7-6.332,4.709-10.577,4.709-8.723,0-15.592-6.331-15.592-21.769,0-13.895,7.565-20.457,15.98-20.457A14.383,14.383,0,0,1,733.23,460.1v-16.7l7.874-4.092v57.535Zm.079-28.718c-1.778-2.393-5.482-5.326-9.5-5.326-5.712,0-8.8,4.322-8.8,12.892,0,10.189,3.242,14.667,9.108,14.667,3.783,0,7.1-2.548,9.188-5.172Z" transform="translate(-444.241 -439.314)" fill="#e00"/>
      <path id="Path_1665" data-name="Path 1665" d="M793.175,482.773h-26.79c.85,7.8,5.251,11.116,10.192,11.116a14.193,14.193,0,0,0,8.8-3.243l4.71,5.1c-3.552,3.4-7.8,5.326-13.975,5.326-9.494,0-17.521-7.643-17.521-21.074,0-13.741,7.256-21.151,17.754-21.151,11.5,0,17.06,9.34,17.06,20.3C793.4,480.611,793.249,481.923,793.175,482.773ZM775.8,466.022c-5.323,0-8.568,3.705-9.262,10.188h18.835C784.991,470.653,782.363,466.022,775.8,466.022Z" transform="translate(-453.135 -442.685)" fill="#e00"/>
      <path id="Path_1666" data-name="Path 1666" d="M830.5,495.844a16.122,16.122,0,0,1-7.8,1.853c-5.631,0-9.107-3.474-9.107-10.73v-23.39h-5.789v-7.258H813.6V443.483l7.8-4.169v17.005h10.035v7.258H821.392v21.5c0,3.782,1.238,4.863,4.169,4.863a12.715,12.715,0,0,0,5.865-1.623Z" transform="translate(-461.631 -439.314)"/>
      <path id="Path_1667" data-name="Path 1667" d="M884.642,500.4h-6.794l-5.481-20.458c-.851-3.087-1.7-6.717-2.083-8.646-.387,1.929-1.238,5.636-2.086,8.724l-5.4,20.38H856l-11.114-40.53h7.872l4.788,19.686c.772,3.088,1.621,6.949,2.008,8.879.463-2.007,1.388-5.715,2.236-8.879l5.408-19.686H873.6l5.478,19.762c.848,3.166,1.7,6.8,2.162,8.8.463-2.007,1.236-5.791,2.007-8.879l4.785-19.686h7.875Z" transform="translate(-468.03 -442.862)"/>
      <path id="Path_1668" data-name="Path 1668" d="M946.364,482.773H919.576c.848,7.8,5.252,11.116,10.192,11.116a14.183,14.183,0,0,0,8.8-3.243l4.713,5.1c-3.553,3.4-7.8,5.326-13.976,5.326-9.494,0-17.522-7.643-17.522-21.074,0-13.741,7.258-21.151,17.755-21.151,11.5,0,17.058,9.34,17.058,20.3C946.593,480.611,946.44,481.923,946.364,482.773Zm-17.37-16.751c-5.325,0-8.57,3.705-9.261,10.188h18.832C938.182,470.653,935.555,466.022,928.994,466.022Z" transform="translate(-479.577 -442.685)"/>
      <path id="Path_1669" data-name="Path 1669" d="M985.983,468.105a11.866,11.866,0,0,0-6.1-1.466c-5.019,0-7.95,3.55-7.95,10.42v23.16h-7.953V459.69h7.953v3.862a11.233,11.233,0,0,1,9.264-4.71c3.242,0,5.249.617,6.868,1.7Z" transform="translate(-488.588 -442.685)"/>
      <path id="Path_1670" data-name="Path 1670" d="M1025.858,500.22V477.292c0-8.183-3.088-11.116-8.337-11.116-5.328,0-8.34,3.782-8.34,10.345v23.7h-7.948V459.69h7.948v3.862c2.009-2.936,6.024-4.71,10.19-4.71,9.418,0,14.437,6.177,14.437,18.141V500.22Z" transform="translate(-495.018 -442.685)"/>
    </g>
    <g id="Group_2241" data-name="Group 2241" transform="translate(196.218 283.81)">
      <path id="Path_1671" data-name="Path 1671" d="M215.679,328.509a19.458,19.458,0,0,0-19.461,19.459c0,10.749,19.461,98.94,19.461,98.94s19.459-88.191,19.459-98.94A19.458,19.458,0,0,0,215.679,328.509Z" transform="translate(-196.218 -294.248)" fill="#f6871f"/>
      <path id="Path_1672" data-name="Path 1672" d="M216.64,316.778A14.838,14.838,0,1,0,201.8,301.942,14.838,14.838,0,0,0,216.64,316.778Z" transform="translate(-197.182 -287.101)" fill="#f6871f"/>
    </g>
    <path id="Path_1673" data-name="Path 1673" d="M414.556,315.233A12.23,12.23,0,1,1,402.324,303,12.231,12.231,0,0,1,414.556,315.233Z" transform="translate(-33.465 -6.036)" fill="#f6871f"/>
    <path id="Path_1674" data-name="Path 1674" d="M281.347,279.577A11.544,11.544,0,1,1,269.8,268.032,11.546,11.546,0,0,1,281.347,279.577Z" transform="translate(-10.709 0)" fill="#f6bd14"/>
    <path id="Path_1675" data-name="Path 1675" d="M458.187,284.539A11.085,11.085,0,1,1,447.1,273.455,11.087,11.087,0,0,1,458.187,284.539Z" transform="translate(-41.391 -0.936)" fill="#e00"/>
    <path id="Path_1676" data-name="Path 1676" d="M473.227,342.085a7.153,7.153,0,1,1-7.15-7.153A7.152,7.152,0,0,1,473.227,342.085Z" transform="translate(-45.344 -11.547)" fill="#f6bd14"/>
    <path id="Path_1677" data-name="Path 1677" d="M517.145,317.275a7.152,7.152,0,1,1-7.15-7.153A7.152,7.152,0,0,1,517.145,317.275Z" transform="translate(-52.925 -7.265)" fill="#e00"/>
    <path id="Path_1678" data-name="Path 1678" d="M639.834,285.635a7.151,7.151,0,1,1-7.148-7.151A7.152,7.152,0,0,1,639.834,285.635Z" transform="translate(-74.103 -1.804)" fill="#f6871f"/>
    <g id="Group_2242" data-name="Group 2242" transform="translate(293.953 273.152)">
      <path id="Path_1679" data-name="Path 1679" d="M338,324.563a23.658,23.658,0,0,0-23.662,23.66c0,13.068,23.662,120.29,23.662,120.29s23.657-107.222,23.657-120.29A23.656,23.656,0,0,0,338,324.563Z" transform="translate(-314.342 -282.909)" fill="#e00"/>
      <path id="Path_1680" data-name="Path 1680" d="M339.172,310.3a18.041,18.041,0,1,0-18.038-18.039A18.041,18.041,0,0,0,339.172,310.3Z" transform="translate(-315.514 -274.22)" fill="#e00"/>
    </g>
    <g id="Group_2243" data-name="Group 2243" transform="translate(492.225 278.575)">
      <path id="Path_1681" data-name="Path 1681" d="M568.6,311.893a14.624,14.624,0,0,0-14.627,14.623c0,8.078,14.627,74.354,14.627,74.354s14.623-66.276,14.623-74.354A14.624,14.624,0,0,0,568.6,311.893Z" transform="translate(-553.977 -286.145)" fill="#f6bd14"/>
      <path id="Path_1682" data-name="Path 1682" d="M569.326,303.076a11.151,11.151,0,1,0-11.15-11.149A11.151,11.151,0,0,0,569.326,303.076Z" transform="translate(-554.702 -280.774)" fill="#f6bd14"/>
    </g>
  </g>
</svg>
